<svg width="27" height="27" viewBox="0 0 27 27" fill="none" xmlns="http://www.w3.org/2000/svg">
<path d="M23.6244 7.36678C23.6161 7.25688 23.5242 7.17188 23.4141 7.17188H19.6172V6.11719C19.6172 2.74409 16.8729 0 13.5 0C10.1271 0 7.38282 2.74409 7.38282 6.11719V7.17188H3.58594C3.47583 7.17188 3.38386 7.25688 3.37564 7.36678L1.89907 26.773C1.89464 26.8315 1.91468 26.8893 1.95476 26.9323C1.99463 26.9755 2.05074 27 2.10938 27H24.8906C24.9493 27 25.0054 26.9755 25.0452 26.9325C25.0851 26.8895 25.1054 26.8317 25.1009 26.7732L23.6244 7.36678ZM9.07032 6.11719C9.07032 3.67474 11.0573 1.6875 13.5 1.6875C15.9427 1.6875 17.9297 3.67474 17.9297 6.11719V7.17188H9.07032V6.11719ZM8.22657 13.0781C7.06325 13.0781 6.11719 12.1319 6.11719 10.9688C6.11719 10.1269 6.53907 9.36837 7.38282 9.03551V10.9688C7.38282 11.4341 7.76145 11.8125 8.22657 11.8125C8.69168 11.8125 9.07032 11.4341 9.07032 10.9688V9.03677C9.91407 9.36963 10.3359 10.1339 10.3359 10.9688C10.3359 12.1319 9.38989 13.0781 8.22657 13.0781ZM18.7734 13.0781C17.6101 13.0781 16.6641 12.1319 16.6641 10.9688C16.6641 10.1269 17.0859 9.36837 17.9297 9.03551V10.9688C17.9297 11.4341 18.3083 11.8125 18.7734 11.8125C19.2386 11.8125 19.6172 11.4341 19.6172 10.9688V9.03677C20.4609 9.36963 20.8828 10.1339 20.8828 10.9688C20.8828 12.1319 19.9368 13.0781 18.7734 13.0781Z" fill="white"/>
</svg>
