<svg width="34" height="34" viewBox="0 0 34 34" fill="none" xmlns="http://www.w3.org/2000/svg">
<path d="M24.3766 12.4567C23.8241 11.9035 22.9259 11.9035 22.3734 12.4567L16.2917 18.5378L13.7516 15.9984C13.1991 15.4452 12.3009 15.4452 11.7484 15.9984C11.1952 16.5516 11.1952 17.4484 11.7484 18.0016L15.2901 21.5432C15.5663 21.8202 15.929 21.9583 16.2917 21.9583C16.6543 21.9583 17.017 21.8202 17.2933 21.5432L24.3766 14.4599C24.9298 13.9067 24.9298 13.01 24.3766 12.4567Z" fill="#BACF31"/>
<path d="M32.5833 15.5833C31.8013 15.5833 31.1667 16.218 31.1667 17C31.1667 24.8115 24.8115 31.1667 17 31.1667C9.1885 31.1667 2.83333 24.8115 2.83333 17C2.83333 9.1885 9.1885 2.83333 17 2.83333C20.803 2.83333 24.373 4.31942 27.0534 7.01817C27.6038 7.57421 28.5012 7.57704 29.0565 7.02525C29.6119 6.47417 29.6147 5.57742 29.0636 5.02208C25.8478 1.78358 21.5631 0 17 0C7.62592 0 0 7.62592 0 17C0 26.3741 7.62592 34 17 34C26.3741 34 34 26.3741 34 17C34 16.218 33.3653 15.5833 32.5833 15.5833Z" fill="#BACF31"/>
</svg>
